<svg xmlns="http://www.w3.org/2000/svg" viewBox="0 0 24 24">
  <defs>
    <linearGradient id="tiktok-red" x1="0%" y1="0%" x2="100%" y2="100%">
      <stop offset="0%" stop-color="#25F4EE" />
      <stop offset="50%" stop-color="#FE2C55" />
      <stop offset="100%" stop-color="#000000" />
    </linearGradient>
  </defs>
  <path
    d="M19.59 6.69a4.83 4.83 0 0 1-3.77-4.25V2h-3.45v13.67a2.89 2.89 0 0 1-5.2 1.74 2.89 2.89 0 0 1 2.31-4.64 2.93 2.93 0 0 1 .88.13V9.4a6.84 6.84 0 0 0-1-.05A6.33 6.33 0 0 0 5.8 20.1a6.34 6.34 0 0 0 10.86-4.43V8.92a8.16 8.16 0 0 0 4.77 1.52V6.93a4.85 4.85 0 0 1-1.84-.24Z"
    fill="url(#tiktok-red)"
  />
</svg>
